<?xml version="1.0" encoding="UTF-8" standalone="no"?>
<svg
   xmlns:dc="http://purl.org/dc/elements/1.1/"
   xmlns:cc="http://creativecommons.org/ns#"
   xmlns:rdf="http://www.w3.org/1999/02/22-rdf-syntax-ns#"
   xmlns:svg="http://www.w3.org/2000/svg"
   xmlns="http://www.w3.org/2000/svg"
   xmlns:sodipodi="http://sodipodi.sourceforge.net/DTD/sodipodi-0.dtd"
   xmlns:inkscape="http://www.inkscape.org/namespaces/inkscape"
   id="svg4373"
   viewBox="0 0 199.99999 80"
   height="80"
   width="200"
   version="1.1"
   inkscape:version="0.91 r13725"
   sodipodi:docname="logowh.svg">
  <defs
     id="defs13" />
  <sodipodi:namedview
     pagecolor="#ffffff"
     bordercolor="#666666"
     borderopacity="1"
     objecttolerance="10"
     gridtolerance="10"
     guidetolerance="10"
     inkscape:pageopacity="0"
     inkscape:pageshadow="2"
     inkscape:window-width="790"
     inkscape:window-height="480"
     id="namedview11"
     showgrid="false"
     inkscape:zoom="1.1207642"
     inkscape:cx="1728.1476"
     inkscape:cy="15.01652"
     inkscape:window-x="0"
     inkscape:window-y="0"
     inkscape:window-maximized="0"
     inkscape:current-layer="svg4373" />
  <metadata
     id="metadata4378">
    <rdf:RDF>
      <cc:Work
         rdf:about="">
        <dc:format>image/svg+xml</dc:format>
        <dc:type
           rdf:resource="http://purl.org/dc/dcmitype/StillImage" />
        <dc:title />
      </cc:Work>
    </rdf:RDF>
  </metadata>
  <g
     id="layer1"
     fill-rule="evenodd"
     transform="matrix(2.4806 0 0 2.4806 -374.79 -1742.2)"
     clip-rule="evenodd">
    <path
       id="path216-6-3"
       style="image-rendering:optimizeQuality;shape-rendering:geometricPrecision"
       d="m205.8 702.9h22.004c1.3464 0 2.4448 1.0984 2.4448 2.4449v20.87c0 1.3465-1.0984 2.4449-2.4448 2.4449h-22.004c-1.3465 0-2.4449-1.0984-2.4449-2.4449v-20.87c0-1.3465 1.0984-2.4449 2.4449-2.4449zm17.61 6.8386c0.46063 0 0.85036 0.17717 1.1693 0.49606 0.3189 0.3189 0.49603 0.70867 0.49603 1.1693v1.9134c0 0.46063-0.17713 0.85039-0.49603 1.1693-0.31893 0.3189-0.70866 0.49607-1.1693 0.49607h-7.7244c-0.46063 0-0.85043-0.17717-1.1693-0.49607-0.3189-0.3189-0.4961-0.70866-0.4961-1.1693v-1.9134c0-0.46063 0.1772-0.8504 0.4961-1.1693 0.31886-0.31889 0.70866-0.49606 1.1693-0.49606h7.7244zm-14.669 13.713c0-0.46063-0.1772-0.85039-0.4961-1.1693-0.31886-0.3189-0.70866-0.49607-1.1693-0.49607h-0.35433c-0.46063 0-0.85036 0.17717-1.1693 0.49607-0.3189 0.3189-0.49603 0.70866-0.49603 1.1693v1.9134c0 0.46063 0.17713 0.8504 0.49603 1.1693 0.31893 0.31889 0.70866 0.49606 1.1693 0.49606h0.35433c0.46063 0 0.85043-0.17717 1.1693-0.49606 0.3189-0.3189 0.4961-0.70867 0.4961-1.1693v-1.9134zm1.6299 1.9134c0 0.46063 0.17713 0.8504 0.49603 1.1693 0.31893 0.31889 0.70866 0.49606 1.1693 0.49606h14.953c0.46063 0 0.85036-0.17717 1.1693-0.49606 0.3189-0.3189 0.49603-0.70867 0.49603-1.1693v-1.9134c0-0.46063-0.17713-0.85039-0.49603-1.1693-0.31893-0.3189-0.70866-0.49607-1.1693-0.49607h-14.953c-0.46063 0-0.85036 0.17717-1.1693 0.49607-0.3189 0.3189-0.49603 0.70866-0.49603 1.1693v1.9134zm0-10.134c0 1.3819 0.49603 2.5157 1.4527 3.5079 0.95673 0.95669 2.126 1.4528 3.5079 1.4528h8.3268c1.3819 0 2.5158-0.49607 3.5078-1.4528 0.95673-0.95669 1.4528-2.126 1.4528-3.5079v-5.7047c0-1.3819-0.49606-2.5512-1.4528-3.5079-0.9567-0.95669-2.126-1.4528-3.5078-1.4528h-8.3268c-1.3819 0-2.5158 0.49607-3.5079 1.4528-0.95669 0.95669-1.4527 2.126-1.4527 3.5079v5.7047z"
       stroke="#373435"
       stroke-width=".0042520"
       class="fil1 str2"
       fill="#fff" />
    <g
       fill="#ffffff"
       id="g6">
      <g
         style="font-size:33.00400162px;line-height:0%;font-family:effortless;image-rendering:optimizeQuality;shape-rendering:geometricPrecision;text-rendering:geometricPrecision"
         id="text218-2-6">
        <path
           d="m 168.00781,710.77305 q 0,-0.67684 -0.46734,-1.1603 -0.48345,-0.46734 -1.16029,-0.46734 l -1.86937,0 q -0.67684,0 -1.1603,0.46734 -0.46734,0.48346 -0.46734,1.1603 l 0,12.74715 -3.51312,0 q -0.66073,0 -1.12807,-0.45123 -0.46734,-0.43511 -0.49957,-1.07972 l 0,0 q 0,-0.0806 0,-0.0967 l 0,-11.2162 q 0,-0.67684 -0.48346,-1.14418 -0.46734,-0.48346 -1.14418,-0.48346 l -1.88548,0 q -0.67684,0 -1.14418,0.48346 -0.48346,0.46734 -0.48346,1.14418 l 0,11.2162 0,0.0967 0,0 0,0.24173 q 0,2.03052 1.43426,3.46478 1.43425,1.43425 3.44866,1.43425 l 8.89561,-0.0161 q 0.67684,0 1.16029,-0.46734 0.46734,-0.48346 0.46734,-1.1603 l 0,-0.33842 0,-0.0806 0,-0.0806 0,-14.21364 z"
           style="font-size:33.00400162px;line-height:0%;font-family:effortless;image-rendering:optimizeQuality;shape-rendering:geometricPrecision;text-rendering:geometricPrecision"
           id="path4142" />
        <path
           d="m 178.43437,712.43292 q 0.69296,0 1.17641,0.48346 0.48346,0.48345 0.48346,1.17641 l 0,0.33842 q 0,0.69295 -0.48346,1.17641 -0.48345,0.48346 -1.17641,0.48346 0,0 0,0 l -3.56146,0 0,-1.99829 q 0,-0.69296 0.48345,-1.17641 0.48346,-0.48346 1.17641,-0.48346 l 1.9016,0 z m 1.91772,7.31631 q 2.04663,0 3.497,-1.46648 1.46649,-1.45037 1.46649,-3.49701 l 0,-1.04749 q 0,-2.04663 -1.46649,-3.497 -1.45037,-1.46649 -3.497,-1.46649 l -5.73703,0 q -2.06275,0 -3.51312,1.46649 -1.45037,1.45037 -1.45037,3.497 l 0,8.52496 q 0,0.0967 0.0161,0.22561 0.16116,1.91772 1.5793,3.23917 1.41814,1.32145 3.36808,1.32145 l 5.73703,0 q 1.94994,0 3.3842,-1.33757 1.41814,-1.33756 1.56317,-3.27139 0,-0.69296 -0.48345,-1.17641 -0.48346,-0.48346 -1.17642,-0.48346 l -1.96606,0.0161 q -0.59626,0 -1.04749,0.37065 -0.43511,0.37065 -0.56403,0.91856 l -0.0161,0 q -0.11281,0.56404 -0.56404,0.93469 -0.45122,0.37065 -1.04749,0.37065 l -1.9016,0 q -0.66072,0 -1.14418,-0.45123 -0.48345,-0.45123 -0.51568,-1.11195 l 0,0 0,-2.07887 5.47918,0 z"
           style="font-size:33.00400162px;line-height:0%;font-family:effortless;image-rendering:optimizeQuality;shape-rendering:geometricPrecision;text-rendering:geometricPrecision"
           id="path4144" />
      </g>
      <g
         style="font-size:33.00400162px;line-height:0%;font-family:effortless;image-rendering:optimizeQuality;shape-rendering:geometricPrecision;text-rendering:geometricPrecision"
         id="text220-9-1">
        <path
           d="m 201.70982,710.43463 q 0,-0.67684 -0.48346,-1.17641 -0.49957,-0.48346 -1.17641,-0.48346 l -1.38591,0 q -0.46734,0 -1.17641,0.48346 l -3.43255,4.60895 -3.27139,-4.60895 q -0.48346,-0.48346 -1.17641,-0.48346 l -1.9016,0 q -0.69295,0 -1.17641,0.48346 -0.48346,0.49957 -0.48346,1.17641 l 0,0.35453 q 0,0.67684 0.48346,1.1603 0.0806,0.0806 4.38334,6.10768 -4.30276,5.73702 -4.38334,5.8176 -0.48346,0.48345 -0.48346,1.17641 l 0,0.33842 q 0,0.69295 0.48346,1.17641 0.48346,0.48346 1.17641,0.48346 l 1.38591,0 q 0.67684,0 1.1603,-0.48346 0.0161,0 3.44866,-4.59284 3.27139,4.59284 3.27139,4.59284 0.70907,0.48346 1.1603,0.48346 l 1.91771,0 q 0.67684,0 1.17641,-0.48346 0.48346,-0.48346 0.48346,-1.17641 l 0,-0.33842 q 0,-0.69296 -0.48346,-1.17641 -0.0967,-0.0806 -4.38334,-6.10768 4.28665,-5.73702 4.38334,-5.8176 0.48346,-0.48346 0.48346,-1.1603 l 0,-0.35453 z"
           style="font-size:33.00400162px;line-height:0%;font-family:effortless;image-rendering:optimizeQuality;shape-rendering:geometricPrecision;text-rendering:geometricPrecision"
           id="path4147" />
      </g>
      <g
         style="font-size:6.0158px;line-height:0%;font-family:'DejaVu Sans';image-rendering:optimizeQuality;shape-rendering:geometricPrecision;text-rendering:geometricPrecision"
         id="text222-1-2">
        <path
           d="m 152.96437,728.78401 0.59335,0 0,4.38555 -0.59335,0 0,-4.38555 z"
           style="font-size:6.0158px;line-height:0%;font-family:'DejaVu Sans';image-rendering:optimizeQuality;shape-rendering:geometricPrecision;text-rendering:geometricPrecision"
           id="path4150" />
        <path
           d="m 154.13051,728.78401 3.70994,0 0,0.49936 -1.55682,0 0,3.88619 -0.59629,0 0,-3.88619 -1.55683,0 0,-0.49936 z"
           style="font-size:6.0158px;line-height:0%;font-family:'DejaVu Sans';image-rendering:optimizeQuality;shape-rendering:geometricPrecision;text-rendering:geometricPrecision"
           id="path4152" />
        <path
           d="m 160.33137,728.78401 2.52029,0 0,0.49936 -1.92693,0 0,1.29246 1.73894,0 0,0.49936 -1.73894,0 0,2.09437 -0.59336,0 0,-4.38555 z"
           style="font-size:6.0158px;line-height:0%;font-family:'DejaVu Sans';image-rendering:optimizeQuality;shape-rendering:geometricPrecision;text-rendering:geometricPrecision"
           id="path4154" />
        <path
           d="m 165.57757,729.18644 q -0.64623,0 -1.02809,0.48173 -0.37893,0.48174 -0.37893,1.31302 0,0.82835 0.37893,1.31008 0.38186,0.48174 1.02809,0.48174 0.64623,0 1.02222,-0.48174 0.37892,-0.48173 0.37892,-1.31008 0,-0.83128 -0.37892,-1.31302 -0.37599,-0.48173 -1.02222,-0.48173 z m 0,-0.48174 q 0.92234,0 1.47458,0.6198 0.55223,0.61685 0.55223,1.65669 0,1.0369 -0.55223,1.6567 -0.55224,0.61685 -1.47458,0.61685 -0.92528,0 -1.48045,-0.61685 -0.55223,-0.61686 -0.55223,-1.6567 0,-1.03984 0.55223,-1.65669 0.55517,-0.6198 1.48045,-0.6198 z"
           style="font-size:6.0158px;line-height:0%;font-family:'DejaVu Sans';image-rendering:optimizeQuality;shape-rendering:geometricPrecision;text-rendering:geometricPrecision"
           id="path4156" />
        <path
           d="m 170.61228,731.11337 q 0.19093,0.0646 0.37011,0.27612 0.18212,0.21149 0.36424,0.58161 l 0.60217,1.19846 -0.63742,0 -0.56104,-1.12503 q -0.21737,-0.44061 -0.42299,-0.58454 -0.20268,-0.14394 -0.55517,-0.14394 l -0.64623,0 0,1.85351 -0.59335,0 0,-4.38555 1.33945,0 q 0.75198,0 1.12209,0.31431 0.37011,0.3143 0.37011,0.94878 0,0.41417 -0.19387,0.68735 -0.19093,0.27318 -0.5581,0.37892 z m -1.48633,-1.84175 0,1.55683 0.7461,0 q 0.42886,0 0.64623,-0.19681 0.22031,-0.19974 0.22031,-0.58454 0,-0.3848 -0.22031,-0.57867 -0.21737,-0.19681 -0.64623,-0.19681 l -0.7461,0 z"
           style="font-size:6.0158px;line-height:0%;font-family:'DejaVu Sans';image-rendering:optimizeQuality;shape-rendering:geometricPrecision;text-rendering:geometricPrecision"
           id="path4158" />
        <path
           d="m 177.62092,732.54389 0,-1.1779 -0.96934,0 0,-0.48761 1.55682,0 0,1.88288 q -0.34368,0.2438 -0.75785,0.37011 -0.41417,0.12337 -0.88416,0.12337 -1.02809,0 -1.60969,-0.59923 -0.57867,-0.60217 -0.57867,-1.67432 0,-1.07509 0.57867,-1.67432 0.5816,-0.60217 1.60969,-0.60217 0.42886,0 0.81366,0.10575 0.38774,0.10575 0.71379,0.31137 l 0,0.63154 q -0.32899,-0.27906 -0.6991,-0.42005 -0.37011,-0.141 -0.77841,-0.141 -0.80485,0 -1.21021,0.44943 -0.40243,0.44942 -0.40243,1.33945 0,0.8871 0.40243,1.33652 0.40536,0.44942 1.21021,0.44942 0.3143,0 0.56104,-0.0529 0.24674,-0.0558 0.44355,-0.17037 z"
           style="font-size:6.0158px;line-height:0%;font-family:'DejaVu Sans';image-rendering:optimizeQuality;shape-rendering:geometricPrecision;text-rendering:geometricPrecision"
           id="path4160" />
        <path
           d="m 181.37492,731.11337 q 0.19093,0.0646 0.37011,0.27612 0.18212,0.21149 0.36424,0.58161 l 0.60217,1.19846 -0.63742,0 -0.56104,-1.12503 q -0.21737,-0.44061 -0.42299,-0.58454 -0.20268,-0.14394 -0.55517,-0.14394 l -0.64622,0 0,1.85351 -0.59336,0 0,-4.38555 1.33946,0 q 0.75197,0 1.12208,0.31431 0.37012,0.3143 0.37012,0.94878 0,0.41417 -0.19387,0.68735 -0.19093,0.27318 -0.55811,0.37892 z m -1.48632,-1.84175 0,1.55683 0.7461,0 q 0.42886,0 0.64622,-0.19681 0.22031,-0.19974 0.22031,-0.58454 0,-0.3848 -0.22031,-0.57867 -0.21736,-0.19681 -0.64622,-0.19681 l -0.7461,0 z"
           style="font-size:6.0158px;line-height:0%;font-family:'DejaVu Sans';image-rendering:optimizeQuality;shape-rendering:geometricPrecision;text-rendering:geometricPrecision"
           id="path4162" />
        <path
           d="m 185.25817,729.18644 q -0.64623,0 -1.0281,0.48173 -0.37892,0.48174 -0.37892,1.31302 0,0.82835 0.37892,1.31008 0.38187,0.48174 1.0281,0.48174 0.64622,0 1.02221,-0.48174 0.37893,-0.48173 0.37893,-1.31008 0,-0.83128 -0.37893,-1.31302 -0.37599,-0.48173 -1.02221,-0.48173 z m 0,-0.48174 q 0.92234,0 1.47457,0.6198 0.55223,0.61685 0.55223,1.65669 0,1.0369 -0.55223,1.6567 -0.55223,0.61685 -1.47457,0.61685 -0.92529,0 -1.48046,-0.61685 -0.55223,-0.61686 -0.55223,-1.6567 0,-1.03984 0.55223,-1.65669 0.55517,-0.6198 1.48046,-0.6198 z"
           style="font-size:6.0158px;line-height:0%;font-family:'DejaVu Sans';image-rendering:optimizeQuality;shape-rendering:geometricPrecision;text-rendering:geometricPrecision"
           id="path4164" />
        <path
           d="m 187.82252,728.78401 0.59923,0 0.92234,3.70701 0.91941,-3.70701 0.66679,0 0.92235,3.70701 0.9194,-3.70701 0.60217,0 -1.10153,4.38555 -0.7461,0 -0.92528,-3.80688 -0.93409,3.80688 -0.7461,0 -1.09859,-4.38555 z"
           style="font-size:6.0158px;line-height:0%;font-family:'DejaVu Sans';image-rendering:optimizeQuality;shape-rendering:geometricPrecision;text-rendering:geometricPrecision"
           id="path4166" />
        <path
           d="m 193.55045,728.78401 3.70994,0 0,0.49936 -1.55682,0 0,3.88619 -0.59629,0 0,-3.88619 -1.55683,0 0,-0.49936 z"
           style="font-size:6.0158px;line-height:0%;font-family:'DejaVu Sans';image-rendering:optimizeQuality;shape-rendering:geometricPrecision;text-rendering:geometricPrecision"
           id="path4168" />
        <path
           d="m 197.83612,728.78401 0.59336,0 0,1.79769 2.15605,0 0,-1.79769 0.59336,0 0,4.38555 -0.59336,0 0,-2.0885 -2.15605,0 0,2.0885 -0.59336,0 0,-4.38555 z"
           style="font-size:6.0158px;line-height:0%;font-family:'DejaVu Sans';image-rendering:optimizeQuality;shape-rendering:geometricPrecision;text-rendering:geometricPrecision"
           id="path4170" />
      </g>
    </g>
  </g>
</svg>
